REM DIRINDEX 1\2,1\3,1\4,1\5
REM DIRNAME cjc044,folder01,folder02,folder03,folder04
TITLE ""
FILE "1800_104.mp3" MP3
  TRACK 01 AUDIO
    TITLE "2:cjc044_2897"
    INDEX 01 00:00:00
  TRACK 02 AUDIO
    TITLE "0:"
    INDEX 01 00:01:22
  TRACK 03 AUDIO
    TITLE "3:cjc044_2898"
    INDEX 01 00:02:12
  TRACK 04 AUDIO
    TITLE "0:"
    INDEX 01 00:03:23
  TRACK 05 AUDIO
    TITLE "4:cjc044_2899"
    INDEX 01 00:04:11
  TRACK 06 AUDIO
    TITLE "0:"
    INDEX 01 00:05:42
  TRACK 07 AUDIO
    TITLE "5:cjc044_2900"
    INDEX 01 00:06:20
  TRACK 08 AUDIO
    TITLE "0:"
    INDEX 01 00:09:12
  TRACK 09 AUDIO
    TITLE "2:cjc044_2901"
    INDEX 01 00:10:72
  TRACK 10 AUDIO
    TITLE "0:"
    INDEX 01 00:12:24
  TRACK 11 AUDIO
    TITLE "3:cjc044_2902"
    INDEX 01 00:13:06
  TRACK 12 AUDIO
    TITLE "0:"
    INDEX 01 00:14:07
  TRACK 13 AUDIO
    TITLE "4:cjc044_2903"
    INDEX 01 00:14:70
  TRACK 14 AUDIO
    TITLE "0:"
    INDEX 01 00:16:24
  TRACK 15 AUDIO
    TITLE "5:cjc044_2904"
    INDEX 01 00:16:71
  TRACK 16 AUDIO
    TITLE "0:"
    INDEX 01 00:20:12
  TRACK 17 AUDIO
    TITLE "2:cjc044_2905"
    INDEX 01 00:21:68
  TRACK 18 AUDIO
    TITLE "0:"
    INDEX 01 00:23:12
  TRACK 19 AUDIO
    TITLE "3:cjc044_2906"
    INDEX 01 00:23:73
  TRACK 20 AUDIO
    TITLE "0:"
    INDEX 01 00:25:15
  TRACK 21 AUDIO
    TITLE "4:cjc044_2907"
    INDEX 01 00:26:01
  TRACK 22 AUDIO
    TITLE "0:"
    INDEX 01 00:27:20
  TRACK 23 AUDIO
    TITLE "5:cjc044_2908"
    INDEX 01 00:27:71
  TRACK 24 AUDIO
    TITLE "0:"
    INDEX 01 00:30:63
  TRACK 25 AUDIO
    TITLE "2:cjc044_2909"
    INDEX 01 00:32:45
  TRACK 26 AUDIO
    TITLE "0:"
    INDEX 01 00:33:69
  TRACK 27 AUDIO
    TITLE "3:cjc044_2910"
    INDEX 01 00:34:45
  TRACK 28 AUDIO
    TITLE "0:"
    INDEX 01 00:35:51
  TRACK 29 AUDIO
    TITLE "4:cjc044_2911"
    INDEX 01 00:36:33
  TRACK 30 AUDIO
    TITLE "0:"
    INDEX 01 00:37:57
  TRACK 31 AUDIO
    TITLE "5:cjc044_2912"
    INDEX 01 00:38:31
  TRACK 32 AUDIO
    TITLE "0:"
    INDEX 01 00:41:57
  TRACK 33 AUDIO
    TITLE "2:cjc044_2913"
    INDEX 01 00:43:39
  TRACK 34 AUDIO
    TITLE "0:"
    INDEX 01 00:44:56
  TRACK 35 AUDIO
    TITLE "3:cjc044_2914"
    INDEX 01 00:45:41
  TRACK 36 AUDIO
    TITLE "0:"
    INDEX 01 00:46:29
  TRACK 37 AUDIO
    TITLE "4:cjc044_2915"
    INDEX 01 00:47:11
  TRACK 38 AUDIO
    TITLE "0:"
    INDEX 01 00:48:30
  TRACK 39 AUDIO
    TITLE "5:cjc044_2916"
    INDEX 01 00:49:10
  TRACK 40 AUDIO
    TITLE "0:"
    INDEX 01 00:51:60
  TRACK 41 AUDIO
    TITLE "2:cjc044_2917"
    INDEX 01 00:53:39
  TRACK 42 AUDIO
    TITLE "0:"
    INDEX 01 00:54:54
  TRACK 43 AUDIO
    TITLE "3:cjc044_2918"
    INDEX 01 00:55:32
  TRACK 44 AUDIO
    TITLE "0:"
    INDEX 01 00:56:74
  TRACK 45 AUDIO
    TITLE "4:cjc044_2919"
    INDEX 01 00:57:56
  TRACK 46 AUDIO
    TITLE "0:"
    INDEX 01 00:58:71
  TRACK 47 AUDIO
    TITLE "5:cjc044_2920"
    INDEX 01 00:59:51
  TRACK 48 AUDIO
    TITLE "0:"
    INDEX 01 01:02:63
  TRACK 49 AUDIO
    TITLE "2:cjc044_2921"
    INDEX 01 01:04:47
  TRACK 50 AUDIO
    TITLE "0:"
    INDEX 01 01:05:68
  TRACK 51 AUDIO
    TITLE "3:cjc044_2922"
    INDEX 01 01:06:57
  TRACK 52 AUDIO
    TITLE "0:"
    INDEX 01 01:07:41
  TRACK 53 AUDIO
    TITLE "4:cjc044_2923"
    INDEX 01 01:08:31
  TRACK 54 AUDIO
    TITLE "0:"
    INDEX 01 01:09:50
  TRACK 55 AUDIO
    TITLE "5:cjc044_2924"
    INDEX 01 01:10:28
  TRACK 56 AUDIO
    TITLE "0:"
    INDEX 01 01:13:53
  TRACK 57 AUDIO
    TITLE "2:cjc044_2925"
    INDEX 01 01:15:39
  TRACK 58 AUDIO
    TITLE "0:"
    INDEX 01 01:16:67
  TRACK 59 AUDIO
    TITLE "3:cjc044_2926"
    INDEX 01 01:17:43
  TRACK 60 AUDIO
    TITLE "0:"
    INDEX 01 01:18:51
  TRACK 61 AUDIO
    TITLE "4:cjc044_2927"
    INDEX 01 01:19:42
  TRACK 62 AUDIO
    TITLE "0:"
    INDEX 01 01:20:69
  TRACK 63 AUDIO
    TITLE "5:cjc044_2928"
    INDEX 01 01:21:53
  TRACK 64 AUDIO
    TITLE "0:"
    INDEX 01 01:25:72
  TRACK 65 AUDIO
    TITLE "2:cjc044_2929"
    INDEX 01 01:27:53
  TRACK 66 AUDIO
    TITLE "0:"
    INDEX 01 01:28:57
  TRACK 67 AUDIO
    TITLE "3:cjc044_2930"
    INDEX 01 01:29:52
  TRACK 68 AUDIO
    TITLE "0:"
    INDEX 01 01:30:44
  TRACK 69 AUDIO
    TITLE "4:cjc044_2931"
    INDEX 01 01:31:32
  TRACK 70 AUDIO
    TITLE "0:"
    INDEX 01 01:32:33
  TRACK 71 AUDIO
    TITLE "5:cjc044_2932"
    INDEX 01 01:33:17
  TRACK 72 AUDIO
    TITLE "0:"
    INDEX 01 01:36:48
